{
    "asset" : {
        "generator" : "Khronos glTF Blender I/O v0.9.36",
        "version" : "2.0"
    },
    "scene" : 0,
    "scenes" : [
        {
            "name" : "Scene",
            "nodes" : [
                0,
                1
            ]
        }
    ],
    "nodes" : [
        {
            "mesh" : 0,
            "name" : "tree"
        },
        {
            "mesh" : 1,
            "name" : "leaves",
            "rotation" : [
                0.6264932751655579,
                -0.10150660574436188,
                -0.7164812088012695,
                0.28958120942115784
            ],
            "scale" : [
                1.6374623775482178,
                1.6374624967575073,
                1.6374619007110596
            ],
            "translation" : [
                -0.9362669587135315,
                10.122054100036621,
                0.6893904209136963
            ]
        }
    ],
    "materials" : [
        {
            "doubleSided" : true,
            "name" : "wood",
            "pbrMetallicRoughness" : {
                "baseColorTexture" : {
                    "index" : 0,
                    "texCoord" : 0
                },
                "metallicFactor" : 0,
                "roughnessFactor" : 0.4000000059604645
            }
        },
        {
            "doubleSided" : true,
            "name" : "branch",
            "pbrMetallicRoughness" : {
                "baseColorTexture" : {
                    "index" : 1,
                    "texCoord" : 0
                },
                "metallicFactor" : 0,
                "roughnessFactor" : 0.5
            }
        }
    ],
    "meshes" : [
        {
            "name" : "Cube",
            "primitives" : [
                {
                    "attributes" : {
                        "POSITION" : 0,
                        "NORMAL" : 1,
                        "TEXCOORD_0" : 2,
                        "JOINTS_0" : 3,
                        "WEIGHTS_0" : 4
                    },
                    "indices" : 5,
                    "material" : 0
                }
            ]
        },
        {
            "name" : "Plane",
            "primitives" : [
                {
                    "attributes" : {
                        "POSITION" : 6,
                        "NORMAL" : 7,
                        "TEXCOORD_0" : 8
                    },
                    "indices" : 9,
                    "material" : 1
                }
            ]
        }
    ],
    "textures" : [
        {
            "source" : 0
        },
        {
            "source" : 1
        }
    ],
    "images" : [
        {
            "mimeType" : "image/png",
            "name" : "wood",
            "uri" : "wood.png"
        },
        {
            "mimeType" : "image/png",
            "name" : "branch",
            "uri" : "branch.png"
        }
    ],
    "accessors" : [
        {
            "bufferView" : 0,
            "componentType" : 5126,
            "count" : 472,
            "max" : [
                3.0020720958709717,
                15.971883773803711,
                3.172431707382202
            ],
            "min" : [
                -4.534875392913818,
                -0.036303579807281494,
                -4.72025203704834
            ],
            "type" : "VEC3"
        },
        {
            "bufferView" : 1,
            "componentType" : 5126,
            "count" : 472,
            "type" : "VEC3"
        },
        {
            "bufferView" : 2,
            "componentType" : 5126,
            "count" : 472,
            "type" : "VEC2"
        },
        {
            "bufferView" : 3,
            "componentType" : 5123,
            "count" : 472,
            "type" : "VEC4"
        },
        {
            "bufferView" : 4,
            "componentType" : 5126,
            "count" : 472,
            "type" : "VEC4"
        },
        {
            "bufferView" : 5,
            "componentType" : 5123,
            "count" : 1116,
            "type" : "SCALAR"
        },
        {
            "bufferView" : 6,
            "componentType" : 5126,
            "count" : 400,
            "max" : [
                4.233584403991699,
                3.219714879989624,
                4.3136491775512695
            ],
            "min" : [
                -4.362843990325928,
                -6.534461498260498,
                -4.070993423461914
            ],
            "type" : "VEC3"
        },
        {
            "bufferView" : 7,
            "componentType" : 5126,
            "count" : 400,
            "type" : "VEC3"
        },
        {
            "bufferView" : 8,
            "componentType" : 5126,
            "count" : 400,
            "type" : "VEC2"
        },
        {
            "bufferView" : 9,
            "componentType" : 5123,
            "count" : 600,
            "type" : "SCALAR"
        }
    ],
    "bufferViews" : [
        {
            "buffer" : 0,
            "byteLength" : 5664,
            "byteOffset" : 0
        },
        {
            "buffer" : 0,
            "byteLength" : 5664,
            "byteOffset" : 5664
        },
        {
            "buffer" : 0,
            "byteLength" : 3776,
            "byteOffset" : 11328
        },
        {
            "buffer" : 0,
            "byteLength" : 3776,
            "byteOffset" : 15104
        },
        {
            "buffer" : 0,
            "byteLength" : 7552,
            "byteOffset" : 18880
        },
        {
            "buffer" : 0,
            "byteLength" : 2232,
            "byteOffset" : 26432
        },
        {
            "buffer" : 0,
            "byteLength" : 4800,
            "byteOffset" : 28664
        },
        {
            "buffer" : 0,
            "byteLength" : 4800,
            "byteOffset" : 33464
        },
        {
            "buffer" : 0,
            "byteLength" : 3200,
            "byteOffset" : 38264
        },
        {
            "buffer" : 0,
            "byteLength" : 1200,
            "byteOffset" : 41464
        }
    ],
    "buffers" : [
        {
            "byteLength" : 42664,
            "uri" : "tree.bin"
        }
    ]
}
